  <svg version="1.0" xmlns="http://www.w3.org/2000/svg"  width="500.000000pt" height="500.000000pt" viewBox="0 0 500.000000 500.000000"  preserveAspectRatio="xMidYMid meet"> <g transform="translate(0.000000,500.000000) scale(0.100000,-0.100000)" fill="#730741" stroke="none"> <path d="M2197 4474 c-523 -94 -822 -489 -767 -1013 44 -425 226 -637 920 -1071 681 -426 850 -625 850 -1000 0 -467 -316 -741 -797 -692 -366 37 -585 215 -736 597 -58 147 -117 415 -117 534 0 67 -5 71 -76 71 l-64 0 6 -97 c7 -116 -12 -1140 -21 -1166 -6 -15 0 -17 58 -17 l66 0 6 38 c17 96 38 153 68 178 45 38 58 34 317 -103 209 -111 364 -147 630 -147 739 1 1200 454 1131 1112 -27 260 -125 449 -338 654 -140 133 -301 247 -793 557 -382 241 -494 327 -586 457 -250 350 -128 834 245 975 262 99 610 38 803 -140 180 -166 338 -535 338 -788 l0 -43 43 0 c23 0 52 -3 65 -6 l22 -6 0 243 c0 259 15 719 26 807 l6 52 -66 0 c-60 0 -66 -2 -66 -21 0 -50 -33 -161 -57 -189 -45 -54 -105 -35 -323 98 -211 129 -512 177 -793 126z m-381 -1328 c18 -19 35 -32 38 -29 3 3 33 -21 68 -54 83 -78 168 -149 248 -207 36 -27 77 -62 93 -79 15 -17 27 -27 27 -23 0 4 7 1 15 -8 66 -66 -55 -25 -163 56 -58 43 -372 355 -372 369 0 16 13 9 46 -25z m494 -361 c20 -24 6 -28 -15 -5 -10 11 -13 20 -8 20 6 0 16 -7 23 -15z m90 -87 c0 -26 -4 -23 -41 23 l-33 42 37 -24 c20 -13 37 -32 37 -41z m141 -85 c67 -50 89 -72 89 -89 0 -28 -26 -23 -35 6 -6 20 -35 36 -35 20 0 -18 -19 -10 -45 17 -21 24 -23 29 -9 33 15 6 15 8 -2 25 -18 18 -19 17 -24 -5 -5 -22 -7 -22 -39 18 -52 66 -7 55 100 -25z m54 -3 c3 -5 4 -10 1 -10 -3 0 -8 5 -11 10 -3 6 -4 10 -1 10 3 0 8 -4 11 -10z m180 -135 c55 -37 94 -62 88 -54 -7 7 -13 16 -13 21 0 25 324 -253 402 -344 81 -96 142 -199 94 -159 -8 7 1 -16 20 -51 38 -71 44 -99 18 -77 -9 7 -20 23 -24 35 -5 12 -21 28 -36 36 -15 7 -35 24 -43 38 -40 63 -297 321 -361 361 -14 8 -30 26 -37 40 -7 13 -25 31 -40 40 -15 8 -33 26 -40 40 -7 13 -25 31 -40 40 -15 8 -34 28 -41 43 -8 15 -21 30 -30 33 -23 8 -52 34 -52 46 0 6 8 3 18 -5 9 -9 62 -46 117 -83z m-128 33 c-3 -8 -6 -5 -6 6 -1 11 2 17 5 13 3 -3 4 -12 1 -19z"/> <path d="M2894 2391 c21 -23 26 -26 26 -11 0 5 -10 15 -22 21 -23 12 -23 12 -4 -10z"/> <path d="M3070 2225 c0 -3 2 -5 5 -5 3 0 5 2 5 5 0 3 -2 5 -5 5 -3 0 -5 -2 -5 -5z"/> <path d="M3310 1980 c6 -11 13 -20 16 -20 2 0 0 9 -6 20 -6 11 -13 20 -16 20 -2 0 0 -9 6 -20z"/> </g> </svg> 